# xmcd
#
# Track frame offsets: 
#        151
#        15156
#        29843
#        36119
#        42979
#        45864
#        55621
#        60909
#        63653
#        65118
#        83473
#        103851
#        109956
#        120869
#        128075
#        138423
#        143946
#        147923
#        149644
#        155885
#        166375
#        183761
#        195281
#        198012
#        203856
#        216727
#        230656
#        236433
#        240690
#        253864
#        260007
#
# Disc length: 3724 seconds
#
# Revision: 2
# Processed by: cddbd v1.4PL0 Copyright (c) Steve Scherf et al.
# Submitted via: ExactAudioCopy v0.90b4
#
DISCID=c80e8a1f
DTITLE=Πασχάλης Τερζής - Ζωντανή ηχογράφηση Πύλη Αξιού
DYEAR=2002
DGENRE=Pop
TTITLE0=Παλιόκαιρος
TTITLE1=’σε με να βρω τον εαυτό μου
TTITLE2=Τι σε νοιάζει
TTITLE3=Δε με κατάλαβες ποτέ
TTITLE4=Δώσε μου μία ευκαιρία
TTITLE5=Φεύγοντας
TTITLE6=Γιατί φεγγάρι
TTITLE7=Της ζωής μου τα φεγγάρια
TTITLE8=Μα που να πάω
TTITLE9=Δε θέλω τέτοιους φίλους
TTITLE10=Τζιβαέρι
TTITLE11=Τι να σου κάνω
TTITLE12=Με σκότωσε γιατί την αγαπούσα
TTITLE13=Εγώ τον θεό μου τον θέλω αλήτη
TTITLE14=Μπρος γκρεμός και πίσω εσύ
TTITLE15=Ζήτω τα παράλογα
TTITLE16=Μην περιμένεις πια
TTITLE17=Τυπική διαδικασία
TTITLE18=Τι να σου κάνω
TTITLE19=Υπάρχω
TTITLE20=Μάνα μου
TTITLE21=Φαντασία μου πλανεύτρα
TTITLE22=Θά 'θελα νά 'σουν εδώ
TTITLE23=Θά 'θελα νά 'σουν εδώ
TTITLE24=Βάλε στην πόρτα το κλειδί
TTITLE25=Ρώτησα τα μάτια μου
TTITLE26=Είμαι μόνος μου
TTITLE27=Είμαι μόνος μου (Κρύβομαι)
TTITLE28=Σ' ακολουθώ
TTITLE29=Όλα σε θυμίζουν
TTITLE30=Φίλοι
EXTD=
EXTT0=
EXTT1=
EXTT2=
EXTT3=
EXTT4=
EXTT5=
EXTT6=
EXTT7=
EXTT8=
EXTT9=
EXTT10=
EXTT11=
EXTT12=
EXTT13=
EXTT14=
EXTT15=
EXTT16=
EXTT17=
EXTT18=
EXTT19=
EXTT20=
EXTT21=
EXTT22=
EXTT23=
EXTT24=
EXTT25=
EXTT26=
EXTT27=
EXTT28=
EXTT29=
EXTT30=
PLAYORDER=
